<svg width="18" height="16" viewBox="0 0 18 16" fill="none" xmlns="http://www.w3.org/2000/svg">
<path opacity="0.5" fill-rule="evenodd" clip-rule="evenodd" d="M8.79925 13.9999C8.25144 13.9999 7.7174 13.9537 7.19819 13.8734L3.44558 16.0001V12.4596C1.489 11.1767 0.233276 9.20951 0.233276 6.99994C0.233276 3.13404 4.06844 -3.05176e-05 8.79925 -3.05176e-05C13.5301 -3.05176e-05 17.3652 3.13404 17.3652 6.99994C17.3652 10.8661 13.5301 13.9999 8.79925 13.9999ZM8.79925 1.00014C4.65976 1.00014 1.30403 3.68641 1.30403 6.99994C1.30403 9.03322 2.57056 10.8268 4.50303 11.9121L4.46927 14.2313L6.98956 12.8165C7.57007 12.932 8.17406 13 8.79925 13C12.9387 13 16.2946 10.3138 16.2946 6.99994C16.2946 3.68641 12.9387 1.00014 8.79925 1.00014ZM12.5469 6.50002H5.05165C4.75598 6.50002 4.51626 6.27605 4.51626 6.00005C4.51626 5.72379 4.75598 5.5 5.05165 5.5H12.5469C12.8425 5.5 13.0823 5.72379 13.0823 6.00005C13.0823 6.27605 12.8425 6.50002 12.5469 6.50002ZM6.12241 8.50002H11.4761C11.7718 8.50002 12.0116 8.72385 12.0116 8.99999C12.0116 9.27627 11.7718 9.5001 11.4761 9.5001H6.12241C5.82667 9.5001 5.58703 9.27627 5.58703 8.99999C5.58703 8.72385 5.82667 8.50002 6.12241 8.50002Z" fill="white"/>
</svg>
